<svg width="32" height="32" viewBox="0 0 64 64" fill="none" xmlns="http://www.w3.org/2000/svg" aria-labelledby="starkLogoNavigation" class="t-color-blue"><rect width="64" height="64" rx="32" fill="currentColor"/><path fill-rule="evenodd" clip-rule="evenodd" d="M31.04 47.97v-4.812A11.202 11.202 0 0 0 41.434 25.96L25.96 41.434l-3.45 3.45a16.114 16.114 0 0 1-1.824-1.571c-6.248-6.248-6.248-16.378 0-22.626A15.962 15.962 0 0 1 32.96 16.03v4.812A11.203 11.203 0 0 0 22.566 38.04L38.04 22.567l3.45-3.45a16.114 16.114 0 0 1 1.824 1.57c6.248 6.248 6.248 16.378 0 22.626A15.961 15.961 0 0 1 31.04 47.97Z" fill="#fff"/></svg>